<svg xmlns:svg="http://www.w3.org/2000/svg" xmlns="http://www.w3.org/2000/svg" id="svg6" version="1.1" viewBox="0 0 193.53662 191.21182" height="191.21182mm" width="193.53662mm">
  <defs id="defs2"/>
  <g transform="translate(-65.119667,-437.56022)" id="layer1">
    <g transform="translate(-12.095238,377.97619)" id="g864">
      <ellipse ry="95.605911" rx="96.768311" cy="155.18994" cx="173.98322" id="ellipse837" style="fill:#27c560;fill-opacity:1;fill-rule:evenodd;stroke:none;stroke-width:0.264999;stroke-linejoin:round"/>
      <path id="path835" style="fill:#27c560;fill-opacity:0;fill-rule:evenodd;stroke:#ffffff;stroke-width:9.99996;stroke-linejoin:round;stroke-miterlimit:4;stroke-dasharray:none;stroke-opacity:1" d="m 228.76997,154.56517 c 0,29.55087 -24.25185,53.50659 -54.16802,53.50659 -7.04669,0 -25.03214,-6.42565 -25.03214,-6.42565 l -30.84515,11.80649 10.01619,-30.40032 c 0,0 -8.30693,-18.01676 -8.30693,-28.48711 0,-29.55087 24.25185,-53.50659 54.16803,-53.50659 29.91617,0 54.16802,23.95572 54.16802,53.50659 z"/>
      <path d="m 204.78481,171.01803 c 1.82932,10.42722 -12.79136,17.89518 -25.60788,12.00074 -12.17394,-5.59892 -33.92337,-25.07775 -34.11236,-41.48289 -0.0985,-8.55269 8.86117,-12.07669 8.86117,-12.07669 3.73579,-0.55812 4.99758,3.67381 7.08239,6.67446 2.25413,3.24434 4.051,4.90703 4.75065,7.3866 0.53317,2.12606 -6.85685,6.72476 -5.66137,8.70829 0.40354,0.66953 0.67876,1.70647 1.43041,2.73541 1.46461,2.00494 3.81311,4.37595 5.96432,6.71656 2.74168,2.98307 5.88357,5.8617 8.8671,7.70337 1.88532,1.16376 3.76417,1.77155 5.25893,2.17973 4.26234,1.16395 4.97347,-9.00816 9.15729,-7.95988 3.19742,0.80113 5.57954,2.84196 7.92957,3.97809 3.52246,1.70294 5.89968,2.4096 6.07978,3.43621 z" style="fill:#ffffff;fill-opacity:1;fill-rule:evenodd;stroke:none;stroke-width:0;stroke-linejoin:round;stroke-miterlimit:4;stroke-dasharray:none;stroke-opacity:1" id="path859"/>
    </g>
  </g>
</svg>